<svg width="160" height="64" viewBox="0 0 160 64" fill="none" xmlns="http://www.w3.org/2000/svg">
<g clip-path="url(#clip0_100_375)">
<path d="M88.7593 45.4H93.7894C95.2565 45.4 96.3184 45.72 96.9751 46.36C97.6457 46.9867 97.9811 48 97.9811 49.4V50C97.9811 51.4 97.6457 52.42 96.9751 53.06C96.3184 53.6867 95.2565 54 93.7894 54H84.9868V40H96.6188V42.8H88.7593V45.4ZM94.2085 49.4C94.2085 48.6 93.7894 48.2 92.951 48.2H88.7593V51.2H92.951C93.7894 51.2 94.2085 50.8 94.2085 50V49.4Z" fill="#F56B5C"/>
<path d="M106.888 43.4H110.765V54H107.097V48.2L103.534 54H99.657V43.4H103.325V49.2L106.888 43.4Z" fill="#F56B5C"/>
<path d="M112.23 51.4C114.898 51.6 116.994 51.7 118.517 51.7C118.727 51.7 118.901 51.6333 119.041 51.5C119.181 51.3667 119.251 51.2 119.251 51V50.7C119.251 50.5 119.181 50.3333 119.041 50.2C118.901 50.0667 118.727 50 118.517 50H113.906V47.5H118.098C118.307 47.5 118.482 47.4333 118.622 47.3C118.762 47.1667 118.831 47 118.831 46.8V46.6C118.831 46.4 118.762 46.2333 118.622 46.1C118.482 45.9667 118.307 45.9 118.098 45.9H112.439V43.4H119.355C120.292 43.4 121.046 43.6667 121.619 44.2C122.206 44.72 122.499 45.3067 122.499 45.96C122.499 47.2933 121.87 48.1067 120.613 48.4C121.242 48.5067 121.78 48.8 122.227 49.28C122.688 49.76 122.918 50.4267 122.918 51.28C122.918 52.1333 122.632 52.8333 122.059 53.38C121.486 53.9267 120.725 54.2 119.775 54.2C117.441 54.2 114.926 54.0667 112.23 53.8V51.4Z" fill="#F56B5C"/>
<path d="M131.822 47.3V43.4H135.489V54H131.822V50H128.049V54H124.381V43.4H128.049V47.3H131.822Z" fill="#F56B5C"/>
<path d="M141.879 45.7C141.32 45.7 141.041 45.9667 141.041 46.5V47.6H144.604V46.5C144.604 45.9667 144.324 45.7 143.765 45.7H141.879ZM147.852 53.8C145.156 54.0667 142.711 54.2 140.517 54.2C139.567 54.2 138.805 53.9267 138.232 53.38C137.66 52.8333 137.373 52.1067 137.373 51.2V46.4C137.373 45.4 137.667 44.62 138.253 44.06C138.854 43.4867 139.679 43.2 140.726 43.2H144.918C145.966 43.2 146.783 43.4867 147.37 44.06C147.971 44.62 148.272 45.4 148.272 46.4V50.1H141.041V50.9C141.041 51.1 141.111 51.2667 141.25 51.4C141.39 51.5333 141.565 51.6 141.774 51.6C143.158 51.6 145.184 51.5 147.852 51.3V53.8Z" fill="#F56B5C"/>
<path d="M160 53.8C157.387 54.0667 155.082 54.2 153.084 54.2C152.134 54.2 151.372 53.9267 150.799 53.38C150.226 52.8333 149.94 52.1067 149.94 51.2V46.6C149.94 45.6 150.233 44.82 150.82 44.26C151.421 43.6867 152.245 43.4 153.293 43.4H160V46.1H154.446C153.887 46.1 153.608 46.3667 153.608 46.9V50.8C153.608 51 153.678 51.1667 153.817 51.3C153.957 51.4333 154.132 51.5 154.341 51.5C155.599 51.5 157.485 51.4 160 51.2V53.8Z" fill="#F56B5C"/>
<path d="M84.9868 8H103.241C106.222 8 108.413 8.64286 109.812 9.92857C111.212 11.1857 111.912 13.1143 111.912 15.7143C111.912 17.4286 111.516 18.8286 110.725 19.9143C109.934 20.9714 108.961 21.7143 107.804 22.1429C110.269 22.7714 111.942 24.3143 112.824 26.7714C113.129 27.6571 113.281 28.6857 113.281 29.8571C113.281 32.6571 112.581 34.7143 111.182 36.0286C109.782 37.3429 107.592 38 104.61 38H84.9868V8ZM105.066 28.5714C105.066 26.8571 104.154 26 102.328 26H93.2012V32H102.328C104.154 32 105.066 31.1429 105.066 29.4286V28.5714ZM103.697 16.5714C103.697 14.8571 102.785 14 100.959 14H93.2012V20H100.959C102.785 20 103.697 19.1429 103.697 17.4286V16.5714Z" fill="#F56B5C"/>
<path d="M126.485 38H118.521V27.4H125.856C126.792 27.4 127.547 27.6666 128.119 28.2C128.706 28.72 129 29.3066 129 29.96C129 30.6133 128.853 31.1466 128.56 31.56C128.266 31.9733 127.854 32.2533 127.323 32.4C127.952 32.5066 128.49 32.8 128.937 33.28C129.398 33.76 129.628 34.4 129.628 35.2C129.628 36 129.335 36.6666 128.748 37.2C128.175 37.7333 127.421 38 126.485 38ZM125.961 34.6C125.961 34.4 125.891 34.2333 125.751 34.1C125.611 33.9666 125.437 33.9 125.227 33.9H122.188V35.6H125.227C125.437 35.6 125.611 35.5333 125.751 35.4C125.891 35.2666 125.961 35.1 125.961 34.9V34.6ZM125.332 30.5C125.332 30.3 125.262 30.1333 125.122 30C124.983 29.8666 124.808 29.8 124.598 29.8H122.188V31.6H124.598C124.808 31.6 124.983 31.5333 125.122 31.4C125.262 31.2666 125.332 31.1 125.332 30.9V30.5Z" fill="#1E3556"/>
<path d="M135.489 35.4C136.229 35.4 137.068 35.2666 138.004 35V33.8H134.965C134.755 33.8 134.58 33.8666 134.441 34C134.301 34.1333 134.231 34.3 134.231 34.5V34.7C134.231 34.9 134.301 35.0666 134.441 35.2C134.58 35.3333 134.755 35.4 134.965 35.4H135.489ZM131.611 27.6C134.168 27.3333 136.474 27.2 138.528 27.2C139.478 27.2 140.239 27.4733 140.812 28.02C141.385 28.5666 141.671 29.2933 141.671 30.2V38H138.423L138.213 37C137.557 37.4133 136.879 37.72 136.18 37.92C135.496 38.1066 134.916 38.2 134.441 38.2H133.707C132.757 38.2 131.996 37.9266 131.423 37.38C130.85 36.8333 130.563 36.1066 130.563 35.2V34.3C130.563 33.3933 130.85 32.6666 131.423 32.12C131.996 31.5733 132.757 31.3 133.707 31.3H138.004V30.5C138.004 30.3 137.934 30.1333 137.794 30C137.654 29.8666 137.48 29.8 137.27 29.8C136.362 29.8 135.356 29.84 134.252 29.92C133.162 30 132.282 30.06 131.611 30.1V27.6Z" fill="#1E3556"/>
<path d="M143.552 38V27.4H147.22V35.3H149.63V27.4H153.298V35.3H155.708V27.4H159.376V38H143.552Z" fill="#1E3556"/>
<path d="M83.077 0H17.436V6H83.077V0Z" fill="#F56B5C"/>
<path d="M83.077 56H17.436V64H83.077V56Z" fill="#F56B5C"/>
<path d="M42.981 39.8867H28.3101V53.847H42.981V39.8867Z" fill="#1E3556"/>
<path d="M73.2789 8H58.8296V22H73.2789V8Z" fill="#1E3556"/>
<path d="M74.4184 39.8867H47.1724V53.847H74.4184V39.8867Z" fill="#F56B5C"/>
<path d="M54.7011 8H27.8667V22H54.7011V8Z" fill="#F56B5C"/>
<path d="M51.3644 29.915H28.3101V31.9093H51.3644V29.915Z" fill="#F56B5C"/>
<path d="M45.0769 32.9065H28.3101V34.9008H45.0769V32.9065Z" fill="#F56B5C"/>
<path d="M40.8852 35.8979H28.3101V37.8922H40.8852V35.8979Z" fill="#F56B5C"/>
<path d="M74.4185 30.9121H53.46V37.8923H74.4185V30.9121Z" fill="#1E3556"/>
<path d="M74.4187 24.9292H28.3101V28.9179H74.4187V24.9292Z" fill="#1E3556"/>
<path d="M6.66463 11.8966V7.93103C6.66463 6.72414 6.97131 5.85057 7.58467 5.31035C8.18525 4.75862 9.1564 4.48276 10.4981 4.48276H11.6482C12.9899 4.48276 13.9674 4.75862 14.5808 5.31035C15.1814 5.85057 15.4816 6.72414 15.4816 7.93103V15H2.06445V11.8966H6.66463ZM15.4816 1.49886e-07V3.10345H2.06445V0L15.4816 1.49886e-07ZM10.4981 7.58621C9.73142 7.58621 9.34807 7.93104 9.34807 8.62069V11.8966H12.7982V8.62069C12.7982 7.93104 12.4149 7.58621 11.6482 7.58621H10.4981Z" fill="#1E3556"/>
<path d="M15.4813 20.5V23.5H5.57321V27H3.09619V17H5.57321V20.5H15.4813Z" fill="#1E3556"/>
<path d="M15.4814 31.9508H8.166L15.4814 35.8852V39H3.57262V36.0492H10.888L3.57262 32.1148V29H15.4814V31.9508ZM2.722 34.9016C2.722 36.3224 1.98479 37.0328 0.510374 37.0328H2.58702e-07L1.65282e-07 34.9016H0.425312C0.595437 34.9016 0.737208 34.847 0.850625 34.7377C0.964042 34.6284 1.02075 34.4918 1.02075 34.3279V33.8361C1.02075 33.6721 0.964041 33.5355 0.850625 33.4262C0.737208 33.3169 0.595437 33.2623 0.425312 33.2623H9.342e-08L0 31.1311H0.510374C1.98479 31.1311 2.722 31.8415 2.722 33.2623V34.9016Z" fill="#F56B5C"/>
<path d="M15.4813 49.7945V53L3.09619 48.6438V45.3562L15.4813 41V44.2055L13.2697 44.9452V49.0548L15.4813 49.7945ZM10.9696 48.3151V45.6849L6.81172 47L10.9696 48.3151Z" fill="#1E3556"/>
<path d="M15.1324 54C15.365 56.6548 15.4813 58.8571 15.4813 60.6071C15.4813 61.7738 15.2138 62.631 14.6789 63.1786C14.1439 63.7262 13.3066 64 12.167 64H6.58495C5.36389 64 4.48007 63.7202 3.93349 63.1607C3.37529 62.5893 3.09619 61.6786 3.09619 60.4286V54H5.53832V59.7143C5.53832 60.4286 5.8872 60.7857 6.58495 60.7857H12.167C12.4344 60.7857 12.6496 60.7083 12.8124 60.5536C12.9636 60.3869 13.0392 60.1786 13.0392 59.9286C13.0392 59.6786 13.0392 59.4048 13.0392 59.1071C13.0275 58.8095 13.0159 58.5 13.0043 58.1786C12.9926 57.8571 12.981 57.5357 12.9694 57.2143C12.9578 56.881 12.9345 56.4583 12.8996 55.9464C12.8647 55.4226 12.824 54.7738 12.7775 54H15.1324Z" fill="#1E3556"/>
</g>
<defs>
<clipPath id="clip0_100_375">
<rect width="160" height="64" fill="white"/>
</clipPath>
</defs>
</svg>
