<svg width="200" height="80" viewBox="0 0 200 80" fill="none" xmlns="http://www.w3.org/2000/svg">
<rect width="200" height="80" rx="5" fill="#F9DF8B"/>
<g clip-path="url(#clip0_105_454)">
<path d="M108.759 53.4H113.789C115.257 53.4 116.318 53.72 116.975 54.36C117.646 54.9867 117.981 56 117.981 57.4V58C117.981 59.4 117.646 60.42 116.975 61.06C116.318 61.6867 115.257 62 113.789 62H104.987V48H116.619V50.8H108.759V53.4ZM114.209 57.4C114.209 56.6 113.789 56.2 112.951 56.2H108.759V59.2H112.951C113.789 59.2 114.209 58.8 114.209 58V57.4Z" fill="#F56B5C"/>
<path d="M126.888 51.4H130.765V62H127.097V56.2L123.534 62H119.657V51.4H123.325V57.2L126.888 51.4Z" fill="#F56B5C"/>
<path d="M132.23 59.4C134.898 59.6 136.994 59.7 138.517 59.7C138.727 59.7 138.901 59.6333 139.041 59.5C139.181 59.3667 139.251 59.2 139.251 59V58.7C139.251 58.5 139.181 58.3333 139.041 58.2C138.901 58.0667 138.727 58 138.517 58H133.906V55.5H138.098C138.307 55.5 138.482 55.4333 138.622 55.3C138.762 55.1667 138.831 55 138.831 54.8V54.6C138.831 54.4 138.762 54.2333 138.622 54.1C138.482 53.9667 138.307 53.9 138.098 53.9H132.439V51.4H139.355C140.292 51.4 141.046 51.6667 141.619 52.2C142.206 52.72 142.499 53.3067 142.499 53.96C142.499 55.2933 141.87 56.1067 140.613 56.4C141.242 56.5067 141.78 56.8 142.227 57.28C142.688 57.76 142.918 58.4267 142.918 59.28C142.918 60.1333 142.632 60.8333 142.059 61.38C141.486 61.9267 140.725 62.2 139.775 62.2C137.441 62.2 134.926 62.0667 132.23 61.8V59.4Z" fill="#F56B5C"/>
<path d="M151.822 55.3V51.4H155.489V62H151.822V58H148.049V62H144.381V51.4H148.049V55.3H151.822Z" fill="#F56B5C"/>
<path d="M161.879 53.7C161.32 53.7 161.041 53.9667 161.041 54.5V55.6H164.604V54.5C164.604 53.9667 164.324 53.7 163.765 53.7H161.879ZM167.852 61.8C165.156 62.0667 162.711 62.2 160.517 62.2C159.567 62.2 158.805 61.9267 158.232 61.38C157.66 60.8333 157.373 60.1067 157.373 59.2V54.4C157.373 53.4 157.667 52.62 158.253 52.06C158.854 51.4867 159.679 51.2 160.726 51.2H164.918C165.966 51.2 166.783 51.4867 167.37 52.06C167.971 52.62 168.272 53.4 168.272 54.4V58.1H161.041V58.9C161.041 59.1 161.111 59.2667 161.25 59.4C161.39 59.5333 161.565 59.6 161.774 59.6C163.158 59.6 165.184 59.5 167.852 59.3V61.8Z" fill="#F56B5C"/>
<path d="M180 61.8C177.387 62.0667 175.082 62.2 173.084 62.2C172.134 62.2 171.372 61.9267 170.799 61.38C170.226 60.8333 169.94 60.1067 169.94 59.2V54.6C169.94 53.6 170.233 52.82 170.82 52.26C171.421 51.6867 172.245 51.4 173.293 51.4H180V54.1H174.446C173.887 54.1 173.608 54.3667 173.608 54.9V58.8C173.608 59 173.678 59.1667 173.817 59.3C173.957 59.4333 174.132 59.5 174.341 59.5C175.599 59.5 177.485 59.4 180 59.2V61.8Z" fill="#F56B5C"/>
<path d="M104.987 16H123.241C126.222 16 128.413 16.6429 129.812 17.9286C131.212 19.1857 131.912 21.1143 131.912 23.7143C131.912 25.4286 131.516 26.8286 130.725 27.9143C129.934 28.9714 128.961 29.7143 127.804 30.1429C130.269 30.7714 131.942 32.3143 132.824 34.7714C133.129 35.6571 133.281 36.6857 133.281 37.8571C133.281 40.6571 132.581 42.7143 131.182 44.0286C129.782 45.3429 127.592 46 124.61 46H104.987V16ZM125.066 36.5714C125.066 34.8571 124.154 34 122.328 34H113.201V40H122.328C124.154 40 125.066 39.1429 125.066 37.4286V36.5714ZM123.697 24.5714C123.697 22.8571 122.785 22 120.959 22H113.201V28H120.959C122.785 28 123.697 27.1429 123.697 25.4286V24.5714Z" fill="#F56B5C"/>
<path d="M146.485 46H138.521V35.4H145.856C146.792 35.4 147.547 35.6666 148.119 36.2C148.706 36.72 149 37.3066 149 37.96C149 38.6133 148.853 39.1466 148.56 39.56C148.266 39.9733 147.854 40.2533 147.323 40.4C147.952 40.5066 148.49 40.8 148.937 41.28C149.398 41.76 149.628 42.4 149.628 43.2C149.628 44 149.335 44.6666 148.748 45.2C148.175 45.7333 147.421 46 146.485 46ZM145.961 42.6C145.961 42.4 145.891 42.2333 145.751 42.1C145.611 41.9666 145.437 41.9 145.227 41.9H142.188V43.6H145.227C145.437 43.6 145.611 43.5333 145.751 43.4C145.891 43.2666 145.961 43.1 145.961 42.9V42.6ZM145.332 38.5C145.332 38.3 145.262 38.1333 145.122 38C144.983 37.8666 144.808 37.8 144.598 37.8H142.188V39.6H144.598C144.808 39.6 144.983 39.5333 145.122 39.4C145.262 39.2666 145.332 39.1 145.332 38.9V38.5Z" fill="#1E3556"/>
<path d="M155.489 43.4C156.229 43.4 157.068 43.2666 158.004 43V41.8H154.965C154.755 41.8 154.58 41.8666 154.441 42C154.301 42.1333 154.231 42.3 154.231 42.5V42.7C154.231 42.9 154.301 43.0666 154.441 43.2C154.58 43.3333 154.755 43.4 154.965 43.4H155.489ZM151.611 35.6C154.168 35.3333 156.474 35.2 158.528 35.2C159.478 35.2 160.239 35.4733 160.812 36.02C161.385 36.5666 161.671 37.2933 161.671 38.2V46H158.423L158.213 45C157.557 45.4133 156.879 45.72 156.18 45.92C155.496 46.1066 154.916 46.2 154.441 46.2H153.707C152.757 46.2 151.996 45.9266 151.423 45.38C150.85 44.8333 150.563 44.1066 150.563 43.2V42.3C150.563 41.3933 150.85 40.6666 151.423 40.12C151.996 39.5733 152.757 39.3 153.707 39.3H158.004V38.5C158.004 38.3 157.934 38.1333 157.794 38C157.654 37.8666 157.48 37.8 157.27 37.8C156.362 37.8 155.356 37.84 154.252 37.92C153.162 38 152.282 38.06 151.611 38.1V35.6Z" fill="#1E3556"/>
<path d="M163.552 46V35.4H167.22V43.3H169.63V35.4H173.298V43.3H175.708V35.4H179.376V46H163.552Z" fill="#1E3556"/>
<path d="M103.077 8H37.436V14H103.077V8Z" fill="#F56B5C"/>
<path d="M103.077 64H37.436V72H103.077V64Z" fill="#F56B5C"/>
<path d="M62.981 47.8867H48.3101V61.847H62.981V47.8867Z" fill="#1E3556"/>
<path d="M93.2789 16H78.8296V30H93.2789V16Z" fill="#1E3556"/>
<path d="M94.4184 47.8867H67.1724V61.847H94.4184V47.8867Z" fill="#F56B5C"/>
<path d="M74.7011 16H47.8667V30H74.7011V16Z" fill="#F56B5C"/>
<path d="M71.3644 37.915H48.3101V39.9093H71.3644V37.915Z" fill="#F56B5C"/>
<path d="M65.0769 40.9065H48.3101V42.9008H65.0769V40.9065Z" fill="#F56B5C"/>
<path d="M60.8852 43.8979H48.3101V45.8922H60.8852V43.8979Z" fill="#F56B5C"/>
<path d="M94.4185 38.9121H73.46V45.8923H94.4185V38.9121Z" fill="#1E3556"/>
<path d="M94.4187 32.9292H48.3101V36.9179H94.4187V32.9292Z" fill="#1E3556"/>
<path d="M26.6646 19.8966V15.931C26.6646 14.7241 26.9713 13.8506 27.5847 13.3103C28.1853 12.7586 29.1564 12.4828 30.4981 12.4828H31.6482C32.9899 12.4828 33.9674 12.7586 34.5808 13.3103C35.1814 13.8506 35.4816 14.7241 35.4816 15.931V23H22.0645V19.8966H26.6646ZM35.4816 8V11.1034H22.0645V8L35.4816 8ZM30.4981 15.5862C29.7314 15.5862 29.3481 15.931 29.3481 16.6207V19.8966H32.7982V16.6207C32.7982 15.931 32.4149 15.5862 31.6482 15.5862H30.4981Z" fill="#1E3556"/>
<path d="M35.4813 28.5V31.5H25.5732V35H23.0962V25H25.5732V28.5H35.4813Z" fill="#1E3556"/>
<path d="M35.4814 39.9508H28.166L35.4814 43.8852V47H23.5726V44.0492H30.888L23.5726 40.1148V37H35.4814V39.9508ZM22.722 42.9016C22.722 44.3224 21.9848 45.0328 20.5104 45.0328H20L20 42.9016H20.4253C20.5954 42.9016 20.7372 42.847 20.8506 42.7377C20.964 42.6284 21.0208 42.4918 21.0208 42.3279V41.8361C21.0208 41.6721 20.964 41.5355 20.8506 41.4262C20.7372 41.3169 20.5954 41.2623 20.4253 41.2623H20L20 39.1311H20.5104C21.9848 39.1311 22.722 39.8415 22.722 41.2623V42.9016Z" fill="#F56B5C"/>
<path d="M35.4813 57.7945V61L23.0962 56.6438V53.3562L35.4813 49V52.2055L33.2697 52.9452V57.0548L35.4813 57.7945ZM30.9696 56.3151V53.6849L26.8117 55L30.9696 56.3151Z" fill="#1E3556"/>
<path d="M35.1324 62C35.365 64.6548 35.4813 66.8571 35.4813 68.6071C35.4813 69.7738 35.2138 70.631 34.6789 71.1786C34.1439 71.7262 33.3066 72 32.167 72H26.585C25.3639 72 24.4801 71.7202 23.9335 71.1607C23.3753 70.5893 23.0962 69.6786 23.0962 68.4286V62H25.5383V67.7143C25.5383 68.4286 25.8872 68.7857 26.585 68.7857H32.167C32.4344 68.7857 32.6496 68.7083 32.8124 68.5536C32.9636 68.3869 33.0392 68.1786 33.0392 67.9286C33.0392 67.6786 33.0392 67.4048 33.0392 67.1071C33.0275 66.8095 33.0159 66.5 33.0043 66.1786C32.9926 65.8571 32.981 65.5357 32.9694 65.2143C32.9578 64.881 32.9345 64.4583 32.8996 63.9464C32.8647 63.4226 32.824 62.7738 32.7775 62H35.1324Z" fill="#1E3556"/>
</g>
<defs>
<clipPath id="clip0_105_454">
<rect width="160" height="64" fill="white" transform="translate(20 8)"/>
</clipPath>
</defs>
</svg>
