<?xml version="1.0" standalone="no"?>
<!DOCTYPE svg PUBLIC "-//W3C//DTD SVG 20010904//EN"
 "http://www.w3.org/TR/2001/REC-SVG-20010904/DTD/svg10.dtd">
<svg version="1.0" xmlns="http://www.w3.org/2000/svg"
 width="700.000000pt" height="700.000000pt" viewBox="0 0 700.000000 700.000000"
 preserveAspectRatio="xMidYMid meet">
<metadata>
Created by potrace 1.14, written by Peter Selinger 2001-2017
</metadata>
<g transform="translate(0.000000,700.000000) scale(0.100000,-0.100000)"
fill="#000000" stroke="none">
<path d="M0 6672 l0 -328 3498 1 3497 0 3 328 2 327 -3500 0 -3500 0 0 -328z"/>
<path d="M1050 5360 l0 -766 1467 1 1467 0 1 758 c0 418 -2 762 -5 766 -3 4
-663 7 -1467 6 l-1463 0 0 -765z"/>
<path d="M4436 6120 c-2 -5 0 -1496 3 -1516 1 -13 1555 -14 1568 -1 4 5 8 349
8 765 l0 757 -788 0 c-434 0 -790 -2 -791 -5z"/>
<path d="M1099 4255 c-6 -144 -2 -415 6 -416 13 -1 5006 -1 5023 0 10 1 12 48
10 218 l-3 217 -2518 0 c-2510 1 -2517 1 -2518 -19z"/>
<path d="M1099 3703 c-1 -47 -1 -157 0 -175 1 -17 68 -18 1261 -18 l1260 0 0
110 0 110 -1260 0 -1260 0 -1 -27z"/>
<path d="M3850 3238 l0 -383 1145 0 1145 0 0 383 0 382 -1145 0 -1145 0 0
-382z"/>
<path d="M1468 3402 c-284 -2 -368 -5 -369 -15 0 -6 -1 -55 -2 -107 l-1 -95
917 -1 917 -1 0 108 c0 106 -1 109 -22 109 -387 3 -1162 4 -1440 2z"/>
<path d="M1120 3072 c-25 -3 -25 -3 -24 -103 1 -55 5 -103 9 -107 3 -4 312 -7
686 -7 l679 0 1 55 c2 103 0 152 -6 158 -5 6 -1297 10 -1345 4z"/>
<path d="M1099 2631 c-1 -8 -1 -1503 0 -1513 1 -5 361 -8 801 -8 l800 0 1 53
c0 50 0 1456 -1 1468 0 8 -1600 8 -1601 0z"/>
<path d="M3160 1873 l0 -763 1490 0 1490 0 0 763 0 764 -1490 0 -1490 0 0
-764z"/>
<path d="M4 871 c-2 -2 -4 -199 -4 -438 l0 -433 3500 0 3500 0 -2 437 -3 438
-3493 0 c-1922 0 -3496 -2 -3498 -4z"/>
</g>
</svg>
